PathFileType	4	(X/Y/Z)	C:/Users/beibeiliu/ov580/test_trc/User3\sequence.23_training_dense_left.trc
DataRate	CameraRate	NumFrames	NumMarkers	Units	OrigDataRate	OrigDataStartFrame	OrigNumFrames
120	120	10	19	mm	120	1	91
Frame#	Time	ThumbCMC			ThumbMCP			ThumbIP			ThumbTip			IndexMCP			IndexPIP			IndexTip			MiddleMCP			MiddlePIP			MiddleTip			RingMCP			RingPIP			RingTip			PinkyMCP			PinkyPIP			PinkyTip			BackHand1			BackHand2			BackHand3	
		X0	Y0	Z0	X1	Y1	Z1	X2	Y2	Z2	X3	Y3	Z3	X4	Y4	Z4	X5	Y5	Z5	X6	Y6	Z6	X7	Y7	Z7	X8	Y8	Z8	X9	Y9	Z9	X10	Y10	Z10	X11	Y11	Z11	X12	Y12	Z12	X13	Y13	Z13	X14	Y14	Z14	X15	Y15	Z15	X16	Y16	Z16	X17	Y17	Z17	X18	Y18	Z18	
0	0	-99.8359	-9.4476	29.2112	-85.8172	-14.3962	-0.942916	-76.1314	-15.3605	-31.3149	-87.2287	-18.1623	-60.0541	-115.686	28.819	-37.0038	-104.871	14.6246	-63.5324	-100.701	-19.8882	-70.9986	-139.035	39.0374	-38.8396	-135.655	44.5016	-68.4271	-130.629	38.904	-100.794	-157.288	32.1359	-34.4585	-158.818	40.2716	-57.0767	-158.132	39.0869	-86.0969	-179.585	13.0887	-25.3246	-183.374	19.6319	-44.4197	-181.912	24.5807	-70.2139	-162.554	17.1279	14.6665	-164.952	1.57122	45.681	-132.35	17.2725	32.3651	
1	0.00833333	-103.943	-7.0819	27.5824	-87.6012	-10.8257	-1.42229	-84.6898	-12.5562	-30.1387	-91.203	-16.8233	-58.185	-120.342	29.7819	-38.0368	-110.443	12.7363	-65.9636	-106.034	-19.2122	-70.6082	-142.624	40.8947	-40.3486	-139.776	45.3239	-65.1961	-135.686	39.1962	-100.234	-165.965	30.8897	-32.3238	-162.355	39.9605	-56.6542	-161.941	39.5906	-90.1259	-180.22	10.5547	-21.2877	-187.553	20.7739	-48.1543	-189.56	24.1431	-68.2781	-167.662	13.9991	18.177	-166.887	4.16648	44.8903	-134.514	18.5663	31.2426	
2	0.0166667	-106.828	-7.06551	29.8295	-92.0608	-10.5382	1.88491	-85.0456	-11.0847	-33.198	-93.1814	-16.2614	-52.8949	-119.039	30.0419	-40.0075	-114.768	15.0667	-63.341	-105.258	-13.9037	-69.365	-149.824	39.6829	-36.4552	-144.928	44.8829	-65.4987	-138.144	40.4806	-97.3263	-165.135	30.3394	-28.9313	-166.95	39.6396	-60.02	-167.691	38.2486	-88.0007	-185.586	11.1427	-20.5444	-191.734	18.4354	-44.7896	-191.728	21.4966	-67.0682	-171.849	14.4422	19.2511	-168.761	2.8544	45.2379	-139.235	17.2335	34.4883	
3	0.025	-106.426	-2.79302	26.9405	-95.6625	-8.04441	0.221383	-88.6839	-10.0324	-29.8373	-93.7937	-15.6232	-51.602	-125.155	30.5321	-38.4765	-113.172	13.9031	-63.7542	-113.297	-12.0261	-68.8987	-151.424	39.7572	-33.8653	-149.32	45.0708	-66.4793	-145.09	39.9841	-97.1043	-168.522	32.0073	-29.7161	-171.92	39.3764	-57.3615	-170.36	39.3931	-81.4908	-184.117	10.3199	-18.1216	-191.863	20.3894	-41.709	-197.182	22.976	-64.921	-172.971	15.4282	17.6946	-175.182	2.80004	45.5369	-141.07	20.2114	33.3859	
4	0.0333333	-112.622	-3.73016	31.367	-96.9265	-5.69415	-0.451831	-87.8504	-8.76818	-28.0956	-95.2609	-13.8297	-53.6182	-126.409	33.4091	-33.6417	-118.796	19.3086	-60.1883	-111.314	-10.0846	-67.6343	-153.324	44.1945	-36.7569	-150.512	46.2947	-66.7003	-147.263	42.4876	-93.8039	-176.153	30.243	-27.9071	-174.473	41.3028	-56.418	-175.19	38.7934	-84.1682	-192.775	10.3001	-18.3378	-194.267	19.5593	-38.4893	-201.102	22.205	-63.3554	-176.822	16.5486	20.8915	-172.256	5.97632	46.8944	-144.204	20.1645	34.4397	
5	0.0416667	-114.231	-1.30808	28.84	-99.7086	-4.88156	1.64	-93.9002	-6.35799	-29.8784	-98.5347	-12.8444	-53.7145	-128.566	33.6527	-31.2565	-124.189	15.3591	-60.9103	-115.124	-10.2522	-65.7663	-159.879	41.9388	-34.908	-155.021	47.0787	-62.4422	-153.626	41.0814	-93.5564	-179.319	30.2286	-26.2837	-180.246	39.8397	-54.7886	-180.252	38.5629	-79.5597	-193.224	11.3346	-15.5035	-197.418	18.5853	-34.9496	-203.573	19.5457	-61.0973	-175.275	15.6098	25.6563	-175.824	3.56068	49.8144	-142.902	20.6722	37.168	
6	0.05	-113.48	-0.325692	30.4351	-99.0536	-4.37023	1.52491	-95.4898	-8.62703	-24.7254	-101.235	-12.2285	-49.8396	-133.852	32.3965	-35.4269	-122.954	19.1096	-57.1072	-119.243	-10.5063	-64.58	-162.781	42.1098	-34.358	-157.156	47.2627	-59.0291	-154.117	42.9411	-94.3056	-176.477	30.489	-22.9948	-180.917	39.5065	-50.8683	-178.654	40.9691	-81.9025	-197.245	10.413	-15.0213	-202.098	18.9849	-39.4629	-205.898	20.4795	-61.4185	-175.412	14.2388	26.0114	-178.819	2.60692	52.3162	-148.143	20.7527	39.9994	
7	0.0583333	-114.683	-1.89879	35.683	-100.565	-5.73977	5.23955	-93.8423	-6.18595	-27.8907	-100.067	-12.2497	-51.2573	-134.093	33.4718	-33.5691	-123.2	14.9992	-58.7468	-121.763	-10.9765	-64.5757	-162.286	42.6523	-33.2312	-159.531	46.7671	-59.3158	-152.178	42.6732	-95.8841	-178.006	31.9759	-23.0074	-184.905	38.9651	-50.7098	-183.22	39.2008	-77.7218	-199.225	13.0412	-15.5056	-202.917	18.4202	-35.0503	-207.299	20.4973	-63.2094	-181.941	13.6669	26.8411	-180.108	4.1691	51.4967	-146.754	23.1336	40.4112	
8	0.0666667	-116.383	-1.62281	32.66	-103.481	-4.69937	2.77222	-99.0907	-6.41331	-25.3211	-106.416	-10.5703	-52.2318	-135.368	33.8409	-31.2539	-125.778	14.8604	-59.9078	-117.829	-15.0618	-62.9743	-162.572	42.1299	-29.8509	-162.706	46.4166	-63.0133	-155.727	42.3078	-93.3782	-181.221	32.7589	-24.2264	-185.607	39.877	-49.926	-181.075	40.45	-79.9663	-199.438	9.95133	-12.2494	-203.901	18.1153	-33.9828	-209.663	20.2326	-60.9358	-180.327	15.0394	25.2107	-181.089	2.20601	53.7614	-148.697	20.1617	39.9939	
9	0.075	-119.077	-1.68917	33.5819	-100.202	-3.84079	2.13221	-94.563	-5.56826	-25.4397	-106.666	-11.2109	-48.7483	-134.838	34.1318	-33.0687	-129.383	19.5996	-58.7188	-121.964	-11.4253	-65.5895	-162.09	44.2001	-32.5919	-159.75	48.9006	-61.2303	-155.884	43.5225	-92.5864	-178.871	35.2194	-25.283	-187.141	40.8474	-48.8744	-183.197	40.703	-78.9216	-195.371	11.4046	-12.4548	-205.569	19.3184	-37.2798	-207.866	21.3432	-60.6508	-183.775	14.948	25.0807	-182.163	5.55709	49.7582	-148.594	21.1907	40.0947	
